<mxfile host="app.diagrams.net" modified="2022-09-10T17:38:32.551Z" agent="5.0 (Windows NT 10.0; Win64; x64) AppleWebKit/537.36 (KHTML, like Gecko) Chrome/104.0.0.0 Safari/537.36" etag="QMNMdDr_KhGJ3pYiLfKx" version="20.2.7" type="github">
  <diagram id="bvRMidae-dQ-9PohaLpu" name="Page-1">
    <mxGraphModel dx="428" dy="686" grid="1" gridSize="10" guides="1" tooltips="1" connect="1" arrows="1" fold="1" page="1" pageScale="1" pageWidth="1100" pageHeight="850" math="0" shadow="0">
      <root>
        <mxCell id="0" />
        <mxCell id="1" parent="0" />
        <mxCell id="5xTfPmVbU_wmoHjHkt57-1" value="&lt;h1&gt;Number Of Ways To Make Change&lt;/h1&gt;&lt;div&gt;&lt;ul&gt;&lt;li&gt;Given an array of distinct positive integers representing coin denominations and a single non-negative integer `n` representing a target amount of money, write a function that returns the number of ways to make change for that target amount using the given coin denominations&lt;/li&gt;&lt;/ul&gt;&lt;div&gt;&lt;br&gt;&lt;/div&gt;&lt;/div&gt;&lt;div&gt;Example&lt;/div&gt;&lt;div&gt;Input: n = 6, denoms = [1, 5]&lt;/div&gt;&lt;div&gt;Output: 2 // 1x1 + 1x5 and 6x1&lt;/div&gt;" style="text;html=1;strokeColor=none;fillColor=none;spacing=5;spacingTop=-20;whiteSpace=wrap;overflow=hidden;rounded=0;" vertex="1" parent="1">
          <mxGeometry x="30" y="40" width="520" height="220" as="geometry" />
        </mxCell>
        <mxCell id="5xTfPmVbU_wmoHjHkt57-2" value="&lt;h1&gt;Solution 1&lt;/h1&gt;&lt;p&gt;&lt;/p&gt;&lt;ul&gt;&lt;li&gt;This is a dynamic programming problem&lt;/li&gt;&lt;li&gt;We make an array of size 0 to N where N is the target number of change&lt;/li&gt;&lt;/ul&gt;&lt;p&gt;&lt;/p&gt;" style="text;html=1;strokeColor=none;fillColor=none;spacing=5;spacingTop=-20;whiteSpace=wrap;overflow=hidden;rounded=0;" vertex="1" parent="1">
          <mxGeometry x="30" y="330" width="310" height="210" as="geometry" />
        </mxCell>
        <mxCell id="5xTfPmVbU_wmoHjHkt57-4" value="&lt;h1&gt;Time and Space Complexity&lt;/h1&gt;&lt;p&gt;&lt;/p&gt;&lt;ul&gt;&lt;li&gt;O(N * M)&lt;/li&gt;&lt;ul&gt;&lt;li&gt;Where N = length of denoms array&lt;/li&gt;&lt;li&gt;M = length of ways array (target n + 1 length)&lt;/li&gt;&lt;/ul&gt;&lt;li&gt;Space Complexity&lt;/li&gt;&lt;ul&gt;&lt;li&gt;O(M)&lt;/li&gt;&lt;li&gt;M is the length of the ways array&lt;/li&gt;&lt;/ul&gt;&lt;/ul&gt;&lt;p&gt;&lt;/p&gt;" style="text;html=1;strokeColor=none;fillColor=none;spacing=5;spacingTop=-20;whiteSpace=wrap;overflow=hidden;rounded=0;" vertex="1" parent="1">
          <mxGeometry x="30" y="590" width="400" height="210" as="geometry" />
        </mxCell>
      </root>
    </mxGraphModel>
  </diagram>
</mxfile>
